<svg width="668" height="200" viewBox="0 0 668 200" fill="none" xmlns="http://www.w3.org/2000/svg">
<path d="M65 165H663" stroke="black"/>
<path d="M107.714 171V165" stroke="black"/>
<path d="M107.714 191.639C107.072 191.639 106.525 191.465 106.074 191.115C105.622 190.763 105.277 190.253 105.038 189.585C104.799 188.915 104.68 188.105 104.68 187.156C104.68 186.213 104.799 185.408 105.038 184.74C105.28 184.07 105.626 183.558 106.078 183.206C106.532 182.851 107.078 182.673 107.714 182.673C108.351 182.673 108.895 182.851 109.346 183.206C109.801 183.558 110.147 184.07 110.386 184.74C110.628 185.408 110.748 186.213 110.748 187.156C110.748 188.105 110.629 188.915 110.39 189.585C110.152 190.253 109.807 190.763 109.355 191.115C108.903 191.465 108.356 191.639 107.714 191.639ZM107.714 190.702C108.351 190.702 108.845 190.395 109.197 189.781C109.549 189.168 109.726 188.293 109.726 187.156C109.726 186.401 109.645 185.757 109.483 185.226C109.324 184.695 109.093 184.29 108.792 184.011C108.494 183.733 108.135 183.594 107.714 183.594C107.084 183.594 106.591 183.905 106.236 184.527C105.88 185.146 105.703 186.023 105.703 187.156C105.703 187.912 105.782 188.554 105.942 189.083C106.101 189.611 106.329 190.013 106.628 190.288C106.929 190.564 107.291 190.702 107.714 190.702Z" fill="black"/>
<path d="M193.143 171V165" stroke="black"/>
<path d="M194.325 182.793V191.52H193.269V183.901H193.217L191.087 185.315V184.242L193.269 182.793H194.325Z" fill="black"/>
<path d="M278.571 171V165" stroke="black"/>
<path d="M275.842 191.52V190.753L278.723 187.6C279.061 187.23 279.339 186.909 279.558 186.636C279.777 186.361 279.939 186.102 280.044 185.861C280.152 185.617 280.206 185.361 280.206 185.094C280.206 184.787 280.132 184.521 279.984 184.297C279.839 184.073 279.64 183.899 279.387 183.777C279.135 183.655 278.851 183.594 278.535 183.594C278.2 183.594 277.907 183.663 277.657 183.803C277.41 183.939 277.218 184.131 277.082 184.378C276.949 184.625 276.882 184.915 276.882 185.247H275.876C275.876 184.736 275.994 184.287 276.23 183.901C276.466 183.514 276.787 183.213 277.193 182.997C277.602 182.781 278.061 182.673 278.569 182.673C279.081 182.673 279.534 182.781 279.929 182.997C280.324 183.213 280.633 183.504 280.858 183.871C281.082 184.237 281.194 184.645 281.194 185.094C281.194 185.415 281.136 185.729 281.02 186.036C280.906 186.34 280.707 186.679 280.423 187.054C280.142 187.426 279.751 187.881 279.251 188.418L277.291 190.514V190.583H281.348V191.52H275.842Z" fill="black"/>
<path d="M364 171V165" stroke="black"/>
<path d="M364.032 191.639C363.469 191.639 362.968 191.543 362.528 191.35C362.09 191.156 361.742 190.888 361.484 190.544C361.228 190.198 361.089 189.796 361.066 189.338H362.14C362.163 189.619 362.259 189.862 362.43 190.067C362.6 190.269 362.823 190.425 363.099 190.536C363.374 190.646 363.68 190.702 364.015 190.702C364.39 190.702 364.722 190.636 365.012 190.506C365.302 190.375 365.529 190.193 365.694 189.96C365.859 189.727 365.941 189.458 365.941 189.151C365.941 188.83 365.862 188.547 365.702 188.303C365.543 188.056 365.31 187.862 365.004 187.723C364.697 187.584 364.322 187.514 363.879 187.514H363.18V186.577H363.879C364.225 186.577 364.529 186.514 364.79 186.389C365.055 186.264 365.261 186.088 365.408 185.861C365.559 185.634 365.634 185.367 365.634 185.06C365.634 184.764 365.569 184.507 365.438 184.288C365.308 184.07 365.123 183.899 364.884 183.777C364.648 183.655 364.37 183.594 364.049 183.594C363.748 183.594 363.464 183.649 363.197 183.76C362.933 183.868 362.717 184.026 362.549 184.233C362.381 184.438 362.29 184.685 362.276 184.975H361.254C361.271 184.517 361.408 184.117 361.667 183.773C361.925 183.426 362.263 183.156 362.681 182.963C363.102 182.77 363.563 182.673 364.066 182.673C364.606 182.673 365.069 182.783 365.455 183.002C365.842 183.217 366.138 183.503 366.346 183.858C366.553 184.213 366.657 184.597 366.657 185.009C366.657 185.5 366.528 185.919 366.269 186.266C366.013 186.612 365.665 186.852 365.225 186.986V187.054C365.776 187.145 366.207 187.379 366.516 187.757C366.826 188.132 366.981 188.597 366.981 189.151C366.981 189.625 366.852 190.051 366.593 190.429C366.337 190.804 365.988 191.1 365.545 191.315C365.102 191.531 364.597 191.639 364.032 191.639Z" fill="black"/>
<path d="M449.428 171V165" stroke="black"/>
<path d="M446.278 189.73V188.861L450.113 182.793H450.744V184.139H450.317L447.42 188.725V188.793H452.585V189.73H446.278ZM450.386 191.52V189.466V189.061V182.793H451.391V191.52H450.386Z" fill="black"/>
<path d="M534.857 171V165" stroke="black"/>
<path d="M534.837 191.639C534.337 191.639 533.887 191.54 533.486 191.341C533.086 191.142 532.765 190.869 532.523 190.523C532.282 190.176 532.15 189.781 532.127 189.338H533.15C533.189 189.733 533.368 190.06 533.687 190.318C534.008 190.574 534.391 190.702 534.837 190.702C535.195 190.702 535.513 190.618 535.792 190.45C536.073 190.283 536.293 190.053 536.452 189.76C536.614 189.465 536.695 189.131 536.695 188.759C536.695 188.378 536.611 188.038 536.444 187.74C536.279 187.439 536.052 187.202 535.762 187.029C535.472 186.855 535.141 186.767 534.769 186.764C534.502 186.761 534.228 186.803 533.947 186.888C533.665 186.97 533.434 187.077 533.252 187.208L532.263 187.088L532.792 182.793H537.326V183.73H533.678L533.371 186.304H533.422C533.601 186.162 533.826 186.044 534.096 185.95C534.366 185.857 534.647 185.81 534.939 185.81C535.474 185.81 535.949 185.938 536.367 186.193C536.788 186.446 537.117 186.793 537.356 187.233C537.597 187.673 537.718 188.176 537.718 188.742C537.718 189.298 537.593 189.796 537.343 190.233C537.096 190.668 536.755 191.011 536.32 191.264C535.886 191.514 535.391 191.639 534.837 191.639Z" fill="black"/>
<path d="M620.286 171V165" stroke="black"/>
<path d="M620.343 191.639C619.985 191.634 619.627 191.565 619.269 191.435C618.911 191.304 618.584 191.084 618.289 190.774C617.993 190.462 617.756 190.04 617.577 189.509C617.398 188.975 617.309 188.304 617.309 187.497C617.309 186.725 617.381 186.04 617.526 185.443C617.671 184.844 617.881 184.34 618.157 183.931C618.432 183.519 618.765 183.206 619.154 182.993C619.546 182.78 619.988 182.673 620.479 182.673C620.968 182.673 621.402 182.771 621.783 182.967C622.167 183.161 622.479 183.431 622.72 183.777C622.962 184.124 623.118 184.523 623.189 184.975H622.149C622.053 184.583 621.865 184.257 621.587 183.999C621.309 183.74 620.939 183.611 620.479 183.611C619.803 183.611 619.27 183.905 618.881 184.493C618.495 185.081 618.3 185.906 618.297 186.969H618.365C618.524 186.727 618.713 186.521 618.932 186.351C619.154 186.178 619.398 186.044 619.665 185.95C619.932 185.857 620.215 185.81 620.513 185.81C621.013 185.81 621.47 185.935 621.885 186.185C622.3 186.432 622.632 186.774 622.882 187.212C623.132 187.646 623.257 188.145 623.257 188.708C623.257 189.247 623.137 189.742 622.895 190.19C622.654 190.636 622.314 190.992 621.877 191.256C621.442 191.517 620.931 191.645 620.343 191.639ZM620.343 190.702C620.701 190.702 621.022 190.612 621.306 190.433C621.593 190.254 621.818 190.014 621.983 189.713C622.151 189.412 622.235 189.077 622.235 188.708C622.235 188.347 622.154 188.019 621.992 187.723C621.833 187.425 621.613 187.188 621.331 187.011C621.053 186.835 620.735 186.747 620.377 186.747C620.107 186.747 619.855 186.801 619.622 186.909C619.39 187.014 619.185 187.159 619.009 187.344C618.836 187.529 618.699 187.74 618.6 187.979C618.5 188.215 618.451 188.463 618.451 188.725C618.451 189.071 618.532 189.395 618.693 189.696C618.858 189.997 619.083 190.24 619.367 190.425C619.654 190.609 619.979 190.702 620.343 190.702Z" fill="black"/>
<path d="M65 5V165" stroke="black"/>
<path d="M59 165H65" stroke="black"/>
<path d="M50.25 169.379C49.608 169.379 49.0611 169.205 48.6094 168.855C48.1577 168.503 47.8125 167.993 47.5739 167.325C47.3352 166.655 47.2159 165.845 47.2159 164.896C47.2159 163.953 47.3352 163.148 47.5739 162.48C47.8153 161.81 48.1619 161.298 48.6136 160.946C49.0682 160.591 49.6136 160.413 50.25 160.413C50.8864 160.413 51.4304 160.591 51.8821 160.946C52.3366 161.298 52.6832 161.81 52.9219 162.48C53.1634 163.148 53.2841 163.953 53.2841 164.896C53.2841 165.845 53.1648 166.655 52.9261 167.325C52.6875 167.993 52.3423 168.503 51.8906 168.855C51.4389 169.205 50.892 169.379 50.25 169.379ZM50.25 168.442C50.8864 168.442 51.3807 168.135 51.733 167.521C52.0852 166.908 52.2614 166.033 52.2614 164.896C52.2614 164.141 52.1804 163.497 52.0185 162.966C51.8594 162.435 51.6293 162.03 51.3281 161.751C51.0298 161.473 50.6705 161.334 50.25 161.334C49.6193 161.334 49.1264 161.645 48.7713 162.267C48.4162 162.886 48.2386 163.763 48.2386 164.896C48.2386 165.652 48.3182 166.294 48.4773 166.822C48.6364 167.351 48.8651 167.753 49.1634 168.028C49.4645 168.304 49.8267 168.442 50.25 168.442Z" fill="black"/>
<path d="M59 125H65" stroke="black"/>
<path d="M40.337 129.26V128.493L43.2177 125.34C43.5558 124.97 43.8342 124.649 44.0529 124.376C44.2717 124.101 44.4336 123.842 44.5387 123.601C44.6467 123.357 44.7006 123.101 44.7006 122.834C44.7006 122.527 44.6268 122.261 44.479 122.037C44.3342 121.813 44.1353 121.639 43.8825 121.517C43.6296 121.395 43.3455 121.334 43.0302 121.334C42.695 121.334 42.4023 121.403 42.1523 121.543C41.9052 121.679 41.7134 121.871 41.5771 122.118C41.4435 122.365 41.3768 122.655 41.3768 122.987H40.3711C40.3711 122.476 40.489 122.027 40.7248 121.641C40.9606 121.254 41.2816 120.953 41.6879 120.737C42.0969 120.521 42.5558 120.413 43.0643 120.413C43.5756 120.413 44.0288 120.521 44.4237 120.737C44.8185 120.953 45.1282 121.244 45.3526 121.611C45.5771 121.977 45.6893 122.385 45.6893 122.834C45.6893 123.155 45.631 123.469 45.5146 123.776C45.4009 124.08 45.2021 124.419 44.918 124.794C44.6367 125.166 44.2461 125.621 43.7461 126.158L41.7859 128.254V128.322H45.8427V129.26H40.337ZM50.3299 129.379C49.8299 129.379 49.3796 129.28 48.979 129.081C48.5785 128.882 48.2575 128.609 48.016 128.263C47.7745 127.916 47.6424 127.521 47.6197 127.078H48.6424C48.6822 127.473 48.8612 127.8 49.1793 128.058C49.5004 128.314 49.8839 128.442 50.3299 128.442C50.6879 128.442 51.006 128.358 51.2844 128.19C51.5657 128.023 51.7859 127.793 51.945 127.5C52.1069 127.205 52.1879 126.871 52.1879 126.499C52.1879 126.118 52.104 125.778 51.9364 125.48C51.7717 125.179 51.5444 124.942 51.2546 124.769C50.9648 124.595 50.6339 124.507 50.2617 124.504C49.9947 124.501 49.7205 124.543 49.4393 124.628C49.158 124.71 48.9265 124.817 48.7447 124.947L47.756 124.828L48.2844 120.533H52.8185V121.47H49.1708L48.864 124.044H48.9151C49.0941 123.902 49.3185 123.784 49.5884 123.69C49.8583 123.597 50.1396 123.55 50.4322 123.55C50.9663 123.55 51.4421 123.678 51.8597 123.933C52.2802 124.186 52.6097 124.533 52.8484 124.973C53.0898 125.413 53.2106 125.916 53.2106 126.482C53.2106 127.038 53.0856 127.536 52.8356 127.973C52.5884 128.408 52.2475 128.751 51.8129 129.004C51.3782 129.254 50.8839 129.379 50.3299 129.379Z" fill="black"/>
<path d="M59 85H65" stroke="black"/>
<path d="M42.8299 89.3793C42.3299 89.3793 41.8796 89.2799 41.479 89.081C41.0785 88.8822 40.7575 88.6094 40.516 88.2629C40.2745 87.9163 40.1424 87.5214 40.1197 87.0782H41.1424C41.1822 87.4731 41.3612 87.7998 41.6793 88.0583C42.0004 88.314 42.3839 88.4418 42.8299 88.4418C43.1879 88.4418 43.506 88.358 43.7844 88.1904C44.0657 88.0228 44.2859 87.7927 44.445 87.5001C44.6069 87.2046 44.6879 86.8708 44.6879 86.4986C44.6879 86.118 44.604 85.7785 44.4364 85.4802C44.2717 85.179 44.0444 84.9418 43.7546 84.7685C43.4648 84.5952 43.1339 84.5072 42.7617 84.5043C42.4947 84.5015 42.2205 84.5427 41.9393 84.6279C41.658 84.7103 41.4265 84.8168 41.2447 84.9475L40.256 84.8282L40.7844 80.5327H45.3185V81.4702H41.6708L41.364 84.0441H41.4151C41.5941 83.9021 41.8185 83.7842 42.0884 83.6904C42.3583 83.5967 42.6396 83.5498 42.9322 83.5498C43.4663 83.5498 43.9421 83.6776 44.3597 83.9333C44.7802 84.1861 45.1097 84.5327 45.3484 84.9731C45.5898 85.4134 45.7106 85.9163 45.7106 86.4816C45.7106 87.0384 45.5856 87.5356 45.3356 87.9731C45.0884 88.4077 44.7475 88.7515 44.3129 89.0043C43.8782 89.2543 43.3839 89.3793 42.8299 89.3793ZM50.25 89.3793C49.608 89.3793 49.0611 89.2046 48.6094 88.8552C48.1577 88.5029 47.8125 87.993 47.5739 87.3254C47.3352 86.6549 47.2159 85.8452 47.2159 84.8964C47.2159 83.9532 47.3352 83.1478 47.5739 82.4802C47.8153 81.8097 48.1619 81.2984 48.6136 80.9461C49.0682 80.591 49.6136 80.4134 50.25 80.4134C50.8864 80.4134 51.4304 80.591 51.8821 80.9461C52.3366 81.2984 52.6832 81.8097 52.9219 82.4802C53.1634 83.1478 53.2841 83.9532 53.2841 84.8964C53.2841 85.8452 53.1648 86.6549 52.9261 87.3254C52.6875 87.993 52.3423 88.5029 51.8906 88.8552C51.4389 89.2046 50.892 89.3793 50.25 89.3793ZM50.25 88.4418C50.8864 88.4418 51.3807 88.135 51.733 87.5214C52.0852 86.9077 52.2614 86.0327 52.2614 84.8964C52.2614 84.1407 52.1804 83.4972 52.0185 82.966C51.8594 82.4347 51.6293 82.0299 51.3281 81.7515C51.0298 81.4731 50.6705 81.3339 50.25 81.3339C49.6193 81.3339 49.1264 81.645 48.7713 82.2671C48.4162 82.8864 48.2386 83.7629 48.2386 84.8964C48.2386 85.6521 48.3182 86.2941 48.4773 86.8225C48.6364 87.3509 48.8651 87.7529 49.1634 88.0285C49.4645 88.304 49.8267 88.4418 50.25 88.4418Z" fill="black"/>
<path d="M59 45H65" stroke="black"/>
<path d="M41.1371 49.26L45.0405 41.5384V41.4702H40.5405V40.5327H46.1314V41.5213L42.245 49.26H41.1371ZM50.3299 49.3793C49.8299 49.3793 49.3796 49.2799 48.979 49.081C48.5785 48.8821 48.2575 48.6094 48.016 48.2628C47.7745 47.9162 47.6424 47.5213 47.6197 47.0782H48.6424C48.6822 47.473 48.8612 47.7998 49.1793 48.0583C49.5004 48.314 49.8839 48.4418 50.3299 48.4418C50.6879 48.4418 51.006 48.358 51.2844 48.1904C51.5657 48.0228 51.7859 47.7926 51.945 47.5C52.1069 47.2046 52.1879 46.8708 52.1879 46.4986C52.1879 46.1179 52.104 45.7784 51.9364 45.4801C51.7717 45.179 51.5444 44.9418 51.2546 44.7685C50.9648 44.5952 50.6339 44.5071 50.2617 44.5043C49.9947 44.5015 49.7205 44.5426 49.4393 44.6279C49.158 44.7103 48.9265 44.8168 48.7447 44.9475L47.756 44.8282L48.2844 40.5327H52.8185V41.4702H49.1708L48.864 44.0441H48.9151C49.0941 43.902 49.3185 43.7841 49.5884 43.6904C49.8583 43.5966 50.1396 43.5498 50.4322 43.5498C50.9663 43.5498 51.4421 43.6776 51.8597 43.9333C52.2802 44.1861 52.6097 44.5327 52.8484 44.973C53.0898 45.4134 53.2106 45.9162 53.2106 46.4816C53.2106 47.0384 53.0856 47.5355 52.8356 47.973C52.5884 48.4077 52.2475 48.7515 51.8129 49.0043C51.3782 49.2543 50.8839 49.3793 50.3299 49.3793Z" fill="black"/>
<path d="M59 5H65" stroke="black"/>
<path d="M37.3935 4.73272V13.46H36.3366V5.84067H36.2855L34.1548 7.25545V6.18158L36.3366 4.73272H37.3935ZM42.75 13.5793C42.108 13.5793 41.5611 13.4046 41.1094 13.0552C40.6577 12.7029 40.3125 12.1929 40.0739 11.5253C39.8352 10.8549 39.7159 10.0452 39.7159 9.09635C39.7159 8.15317 39.8352 7.34778 40.0739 6.68016C40.3153 6.00971 40.6619 5.49834 41.1136 5.14607C41.5682 4.79096 42.1136 4.6134 42.75 4.6134C43.3864 4.6134 43.9304 4.79096 44.3821 5.14607C44.8366 5.49834 45.1832 6.00971 45.4219 6.68016C45.6634 7.34778 45.7841 8.15317 45.7841 9.09635C45.7841 10.0452 45.6648 10.8549 45.4261 11.5253C45.1875 12.1929 44.8423 12.7029 44.3906 13.0552C43.9389 13.4046 43.392 13.5793 42.75 13.5793ZM42.75 12.6418C43.3864 12.6418 43.8807 12.335 44.233 11.7214C44.5852 11.1077 44.7614 10.2327 44.7614 9.09635C44.7614 8.34067 44.6804 7.69721 44.5185 7.16596C44.3594 6.63471 44.1293 6.22988 43.8281 5.95147C43.5298 5.67306 43.1705 5.53385 42.75 5.53385C42.1193 5.53385 41.6264 5.84493 41.2713 6.46709C40.9162 7.08641 40.7386 7.96283 40.7386 9.09635C40.7386 9.85204 40.8182 10.4941 40.9773 11.0225C41.1364 11.5509 41.3651 11.9529 41.6634 12.2285C41.9645 12.504 42.3267 12.6418 42.75 12.6418ZM50.25 13.5793C49.608 13.5793 49.0611 13.4046 48.6094 13.0552C48.1577 12.7029 47.8125 12.1929 47.5739 11.5253C47.3352 10.8549 47.2159 10.0452 47.2159 9.09635C47.2159 8.15317 47.3352 7.34778 47.5739 6.68016C47.8153 6.00971 48.1619 5.49834 48.6136 5.14607C49.0682 4.79096 49.6136 4.6134 50.25 4.6134C50.8864 4.6134 51.4304 4.79096 51.8821 5.14607C52.3366 5.49834 52.6832 6.00971 52.9219 6.68016C53.1634 7.34778 53.2841 8.15317 53.2841 9.09635C53.2841 10.0452 53.1648 10.8549 52.9261 11.5253C52.6875 12.1929 52.3423 12.7029 51.8906 13.0552C51.4389 13.4046 50.892 13.5793 50.25 13.5793ZM50.25 12.6418C50.8864 12.6418 51.3807 12.335 51.733 11.7214C52.0852 11.1077 52.2614 10.2327 52.2614 9.09635C52.2614 8.34067 52.1804 7.69721 52.0185 7.16596C51.8594 6.63471 51.6293 6.22988 51.3281 5.95147C51.0298 5.67306 50.6705 5.53385 50.25 5.53385C49.6193 5.53385 49.1264 5.84493 48.7713 6.46709C48.4162 7.08641 48.2386 7.96283 48.2386 9.09635C48.2386 9.85204 48.3182 10.4941 48.4773 11.0225C48.6364 11.5509 48.8651 11.9529 49.1634 12.2285C49.4645 12.504 49.8267 12.6418 50.25 12.6418Z" fill="black"/>
<path d="M65 165H663" stroke="#CCCCCC"/>
<path d="M65 125H663" stroke="#CCCCCC"/>
<path d="M65 85H663" stroke="#CCCCCC"/>
<path d="M65 45H663" stroke="#CCCCCC"/>
<path d="M65 5H663" stroke="#CCCCCC"/>
<path d="M107.714 5V165" stroke="#CCCCCC"/>
<path d="M193.143 5V165" stroke="#CCCCCC"/>
<path d="M278.571 5V165" stroke="#CCCCCC"/>
<path d="M364 5V165" stroke="#CCCCCC"/>
<path d="M449.429 5V165" stroke="#CCCCCC"/>
<path d="M534.857 5V165" stroke="#CCCCCC"/>
<path d="M620.286 5V165" stroke="#CCCCCC"/>
<path d="M65 5V165" stroke="#CCCCCC"/>
<path d="M663 5V165" stroke="#CCCCCC"/>
<path d="M73.5428 139.4H141.543V165H73.5428V139.4Z" fill="#F40224"/>
<path d="M158.971 109H226.971V165H158.971V109Z" fill="#F40224"/>
<path d="M244.4 17.8H312.4V165H244.4V17.8Z" fill="#F40224"/>
<path d="M329.829 109H397.829V165H329.829V109Z" fill="#F40224"/>
<path d="M415.257 133H483.257V165H415.257V133Z" fill="#F40224"/>
<path d="M500.686 33.8H568.686V165H500.686V33.8Z" fill="#F40224"/>
<path d="M586.114 160.2H654.114V165H586.114V160.2Z" fill="#F40224"/>
</svg>
