<svg width="241" height="205" viewBox="0 0 241 205" fill="none" xmlns="http://www.w3.org/2000/svg">
<path d="M201.926 110.412C201.926 92.1389 195.67 74.416 184.199 60.1917L121.926 110.412H201.926Z" fill="#DA001F" stroke="white"/>
<path d="M184.199 60.1917C172.123 45.2178 155.056 35.0966 136.125 31.6825C117.193 28.2684 97.6659 31.79 81.12 41.6022L121.926 110.412L184.199 60.1917Z" fill="#DA001F" stroke="white"/>
<path d="M81.12 41.6022C76.295 44.4635 71.7843 47.8245 67.6624 51.6295L121.926 110.412L81.12 41.6022Z" fill="#DA001F" stroke="white"/>
<path d="M67.6623 51.6295C58.092 60.464 50.8235 71.5017 46.4881 83.7836C42.1527 96.0654 40.8816 109.22 42.7852 122.105C44.6888 134.99 49.7096 147.215 57.4113 157.718C65.113 168.222 75.2628 176.686 86.979 182.376L121.926 110.412L67.6623 51.6295Z" fill="#DA001F" stroke="white"/>
<path d="M86.979 182.376C97.6173 187.542 109.269 190.285 121.094 190.408C132.92 190.531 144.626 188.031 155.369 183.087C166.113 178.143 175.626 170.879 183.225 161.817C190.824 152.755 196.32 142.121 199.316 130.681L121.926 110.412L86.979 182.376Z" fill="#DA001F" stroke="white"/>
<path d="M199.316 130.681C201.049 124.064 201.926 117.252 201.926 110.412H121.926L199.316 130.681Z" fill="#DA001F" stroke="white"/>
<path d="M197.364 83.7836L216.224 77.1264L197.364 83.7836Z" fill="#DA001F"/>
<path d="M197.364 83.7836L216.224 77.1264" stroke="black"/>
<path d="M220.076 77.2457C219.514 77.2457 219.012 77.1491 218.572 76.9559C218.134 76.7627 217.786 76.4943 217.528 76.1505C217.272 75.8039 217.133 75.4019 217.11 74.9446H218.184C218.207 75.2258 218.303 75.4687 218.474 75.6732C218.644 75.875 218.867 76.0312 219.143 76.142C219.418 76.2528 219.724 76.3082 220.059 76.3082C220.434 76.3082 220.766 76.2429 221.056 76.1122C221.346 75.9815 221.573 75.7997 221.738 75.5667C221.903 75.3338 221.985 75.0639 221.985 74.7571C221.985 74.436 221.906 74.1534 221.746 73.909C221.587 73.6619 221.354 73.4687 221.048 73.3295C220.741 73.1903 220.366 73.1207 219.923 73.1207H219.224V72.1832H219.923C220.269 72.1832 220.573 72.1207 220.835 71.9957C221.099 71.8707 221.305 71.6946 221.452 71.4673C221.603 71.24 221.678 70.973 221.678 70.6661C221.678 70.3707 221.613 70.1136 221.482 69.8948C221.352 69.6761 221.167 69.5056 220.928 69.3835C220.693 69.2613 220.414 69.2002 220.093 69.2002C219.792 69.2002 219.508 69.2556 219.241 69.3664C218.977 69.4744 218.761 69.6321 218.593 69.8394C218.425 70.044 218.335 70.2911 218.32 70.5809H217.298C217.315 70.1235 217.452 69.723 217.711 69.3792C217.969 69.0326 218.308 68.7627 218.725 68.5696C219.146 68.3764 219.607 68.2798 220.11 68.2798C220.65 68.2798 221.113 68.3892 221.499 68.6079C221.886 68.8238 222.183 69.1093 222.39 69.4644C222.597 69.8196 222.701 70.2031 222.701 70.615C222.701 71.1065 222.572 71.5255 222.313 71.8721C222.058 72.2187 221.71 72.4588 221.269 72.5923V72.6605C221.82 72.7514 222.251 72.9857 222.56 73.3636C222.87 73.7386 223.025 74.2031 223.025 74.7571C223.025 75.2315 222.896 75.6576 222.637 76.0355C222.381 76.4105 222.032 76.7059 221.589 76.9218C221.146 77.1377 220.641 77.2457 220.076 77.2457ZM227.836 68.3991V77.1264H226.779V69.5071H226.728L224.597 70.9218V69.848L226.779 68.3991H227.836ZM233.193 77.2457C232.55 77.2457 232.004 77.071 231.552 76.7215C231.1 76.3693 230.755 75.8593 230.516 75.1917C230.278 74.5213 230.158 73.7116 230.158 72.7627C230.158 71.8196 230.278 71.0142 230.516 70.3465C230.758 69.6761 231.104 69.1647 231.556 68.8125C232.011 68.4573 232.556 68.2798 233.193 68.2798C233.829 68.2798 234.373 68.4573 234.825 68.8125C235.279 69.1647 235.626 69.6761 235.864 70.3465C236.106 71.0142 236.227 71.8196 236.227 72.7627C236.227 73.7116 236.107 74.5213 235.869 75.1917C235.63 75.8593 235.285 76.3693 234.833 76.7215C234.381 77.071 233.835 77.2457 233.193 77.2457ZM233.193 76.3082C233.829 76.3082 234.323 76.0014 234.675 75.3877C235.028 74.7741 235.204 73.8991 235.204 72.7627C235.204 72.0071 235.123 71.3636 234.961 70.8323C234.802 70.3011 234.572 69.8963 234.271 69.6179C233.972 69.3394 233.613 69.2002 233.193 69.2002C232.562 69.2002 232.069 69.5113 231.714 70.1335C231.359 70.7528 231.181 71.6292 231.181 72.7627C231.181 73.5184 231.261 74.1605 231.42 74.6889C231.579 75.2173 231.808 75.6193 232.106 75.8948C232.407 76.1704 232.769 76.3082 233.193 76.3082Z" fill="#DA001F"/>
<path d="M136.125 31.6825L139.674 12L136.125 31.6825Z" fill="#DA001F"/>
<path d="M136.125 31.6825L139.674 12" stroke="black"/>
<path d="M143.475 12.1193C143.117 12.1136 142.759 12.0455 142.401 11.9148C142.043 11.7841 141.717 11.5639 141.421 11.2543C141.126 10.9418 140.889 10.5199 140.71 9.98864C140.531 9.45455 140.441 8.78409 140.441 7.97727C140.441 7.20455 140.514 6.51989 140.658 5.9233C140.803 5.32386 141.014 4.8196 141.289 4.41051C141.565 3.99858 141.897 3.68608 142.286 3.47301C142.678 3.25994 143.12 3.15341 143.612 3.15341C144.1 3.15341 144.535 3.25142 144.916 3.44744C145.299 3.64062 145.612 3.91051 145.853 4.2571C146.095 4.60369 146.251 5.00284 146.322 5.45455H145.282C145.185 5.0625 144.998 4.73722 144.72 4.47869C144.441 4.22017 144.072 4.09091 143.612 4.09091C142.935 4.09091 142.403 4.38494 142.014 4.97301C141.627 5.56108 141.433 6.38636 141.43 7.44886H141.498C141.657 7.20739 141.846 7.00142 142.065 6.83097C142.286 6.65767 142.531 6.52415 142.798 6.4304C143.065 6.33665 143.347 6.28977 143.646 6.28977C144.146 6.28977 144.603 6.41477 145.018 6.66477C145.433 6.91193 145.765 7.25426 146.015 7.69176C146.265 8.12642 146.39 8.625 146.39 9.1875C146.39 9.72727 146.269 10.2216 146.028 10.6705C145.786 11.1165 145.447 11.4716 145.009 11.7358C144.575 11.9972 144.063 12.125 143.475 12.1193ZM143.475 11.1818C143.833 11.1818 144.154 11.0923 144.438 10.9134C144.725 10.7344 144.951 10.4943 145.116 10.1932C145.283 9.89205 145.367 9.55682 145.367 9.1875C145.367 8.8267 145.286 8.49858 145.124 8.20312C144.965 7.90483 144.745 7.66761 144.464 7.49148C144.185 7.31534 143.867 7.22727 143.509 7.22727C143.239 7.22727 142.988 7.28125 142.755 7.3892C142.522 7.49432 142.318 7.6392 142.141 7.82386C141.968 8.00852 141.832 8.22017 141.732 8.45881C141.633 8.6946 141.583 8.94318 141.583 9.20455C141.583 9.55114 141.664 9.875 141.826 10.1761C141.991 10.4773 142.215 10.7202 142.499 10.9048C142.786 11.0895 143.112 11.1818 143.475 11.1818ZM150.793 12.1193C150.293 12.1193 149.843 12.0199 149.442 11.821C149.042 11.6222 148.721 11.3494 148.479 11.0028C148.238 10.6562 148.106 10.2614 148.083 9.81818H149.106C149.145 10.2131 149.324 10.5398 149.642 10.7983C149.963 11.054 150.347 11.1818 150.793 11.1818C151.151 11.1818 151.469 11.098 151.748 10.9304C152.029 10.7628 152.249 10.5327 152.408 10.2401C152.57 9.9446 152.651 9.6108 152.651 9.23864C152.651 8.85795 152.567 8.51847 152.4 8.22017C152.235 7.91903 152.008 7.68182 151.718 7.50852C151.428 7.33523 151.097 7.24716 150.725 7.24432C150.458 7.24148 150.184 7.28267 149.902 7.3679C149.621 7.45028 149.39 7.55682 149.208 7.6875L148.219 7.56818L148.748 3.27273H153.282V4.21023H149.634L149.327 6.78409H149.378C149.557 6.64205 149.782 6.52415 150.052 6.4304C150.321 6.33665 150.603 6.28977 150.895 6.28977C151.429 6.28977 151.905 6.41761 152.323 6.6733C152.743 6.92614 153.073 7.27273 153.312 7.71307C153.553 8.15341 153.674 8.65625 153.674 9.22159C153.674 9.77841 153.549 10.2756 153.299 10.7131C153.052 11.1477 152.711 11.4915 152.276 11.7443C151.841 11.9943 151.347 12.1193 150.793 12.1193ZM155.367 12V11.233L158.247 8.07955C158.585 7.71023 158.864 7.3892 159.082 7.11648C159.301 6.84091 159.463 6.58239 159.568 6.34091C159.676 6.09659 159.73 5.84091 159.73 5.57386C159.73 5.26705 159.656 5.00142 159.509 4.77699C159.364 4.55256 159.165 4.37926 158.912 4.2571C158.659 4.13494 158.375 4.07386 158.06 4.07386C157.724 4.07386 157.432 4.14347 157.182 4.28267C156.935 4.41903 156.743 4.6108 156.607 4.85795C156.473 5.10511 156.406 5.39489 156.406 5.72727H155.401C155.401 5.21591 155.519 4.76705 155.754 4.38068C155.99 3.99432 156.311 3.69318 156.717 3.47727C157.126 3.26136 157.585 3.15341 158.094 3.15341C158.605 3.15341 159.058 3.26136 159.453 3.47727C159.848 3.69318 160.158 3.98437 160.382 4.35085C160.607 4.71733 160.719 5.125 160.719 5.57386C160.719 5.89489 160.661 6.20881 160.544 6.51562C160.43 6.8196 160.232 7.15909 159.948 7.53409C159.666 7.90625 159.276 8.3608 158.776 8.89773L156.815 10.9943V11.0625H160.872V12H155.367Z" fill="#DA001F"/>
<path d="M74.1274 46.262L62.1777 30.2243L74.1274 46.262Z" fill="#DA001F"/>
<path d="M74.1274 46.262L62.1777 30.2243" stroke="black"/>
<path d="M50.883 21.3777C51.2409 21.3806 51.5989 21.4488 51.9569 21.5823C52.3148 21.7158 52.6415 21.9374 52.937 22.2471C53.2324 22.5539 53.4696 22.9729 53.6486 23.5042C53.8276 24.0354 53.9171 24.7016 53.9171 25.5027C53.9171 26.2783 53.8432 26.9672 53.6955 27.5695C53.5506 28.1689 53.3404 28.6746 53.0648 29.0866C52.7921 29.4985 52.4597 29.811 52.0676 30.0241C51.6784 30.2371 51.2381 30.3437 50.7466 30.3437C50.258 30.3437 49.8219 30.2471 49.4384 30.0539C49.0577 29.8579 48.7452 29.5866 48.5009 29.24C48.2594 28.8905 48.1046 28.4857 48.0364 28.0255H49.0762C49.1699 28.426 49.356 28.757 49.6344 29.0184C49.9157 29.2769 50.2864 29.4062 50.7466 29.4062C51.4199 29.4062 51.9512 29.1121 52.3404 28.5241C52.7324 27.936 52.9284 27.105 52.9284 26.0312H52.8603C52.7012 26.2698 52.5123 26.4758 52.2935 26.6491C52.0748 26.8223 51.8319 26.9559 51.5648 27.0496C51.2978 27.1434 51.0137 27.1902 50.7125 27.1902C50.2125 27.1902 49.7537 27.0667 49.3361 26.8195C48.9213 26.5695 48.589 26.2272 48.339 25.7925C48.0918 25.355 47.9682 24.855 47.9682 24.2925C47.9682 23.7584 48.0875 23.2698 48.3262 22.8266C48.5676 22.3806 48.9057 22.0255 49.3404 21.7613C49.7779 21.4971 50.2921 21.3692 50.883 21.3777ZM50.883 22.3152C50.525 22.3152 50.2026 22.4047 49.9157 22.5837C49.6316 22.7598 49.4057 22.9985 49.2381 23.2996C49.0733 23.5979 48.9909 23.9289 48.9909 24.2925C48.9909 24.6562 49.0705 24.9871 49.2296 25.2854C49.3915 25.5809 49.6117 25.8167 49.8901 25.9928C50.1713 26.1661 50.4909 26.2527 50.8489 26.2527C51.1188 26.2527 51.3702 26.2002 51.6032 26.0951C51.8361 25.9871 52.0392 25.8408 52.2125 25.6562C52.3887 25.4687 52.5265 25.257 52.6259 25.0212C52.7253 24.7826 52.775 24.534 52.775 24.2755C52.775 23.9346 52.6926 23.615 52.5279 23.3167C52.3659 23.0184 52.1415 22.7769 51.8546 22.5922C51.5705 22.4076 51.2466 22.3152 50.883 22.3152ZM58.4906 30.3437C58.1326 30.338 57.7747 30.2698 57.4167 30.1391C57.0588 30.0084 56.7321 29.7883 56.4366 29.4786C56.1412 29.1661 55.9039 28.7442 55.725 28.213C55.546 27.6789 55.4565 27.0084 55.4565 26.2016C55.4565 25.4289 55.5289 24.7442 55.6738 24.1476C55.8187 23.5482 56.0289 23.0439 56.3045 22.6348C56.5801 22.2229 56.9125 21.9104 57.3017 21.6973C57.6937 21.4843 58.1355 21.3777 58.627 21.3777C59.1156 21.3777 59.5502 21.4758 59.9309 21.6718C60.3145 21.865 60.627 22.1348 60.8684 22.4814C61.1099 22.828 61.2662 23.2272 61.3372 23.6789H60.2974C60.2008 23.2868 60.0133 22.9616 59.7349 22.703C59.4565 22.4445 59.0872 22.3152 58.627 22.3152C57.9508 22.3152 57.4181 22.6093 57.0289 23.1973C56.6426 23.7854 56.448 24.6107 56.4451 25.6732H56.5133C56.6724 25.4317 56.8613 25.2258 57.0801 25.0553C57.3017 24.882 57.546 24.7485 57.813 24.6547C58.0801 24.561 58.3627 24.5141 58.661 24.5141C59.161 24.5141 59.6184 24.6391 60.0332 24.8891C60.448 25.1363 60.7804 25.4786 61.0304 25.9161C61.2804 26.3508 61.4054 26.8493 61.4054 27.4118C61.4054 27.9516 61.2846 28.4459 61.0431 28.8948C60.8017 29.3408 60.4622 29.6959 60.0247 29.9601C59.59 30.2215 59.0787 30.3493 58.4906 30.3437ZM58.4906 29.4062C58.8485 29.4062 59.1696 29.3167 59.4537 29.1377C59.7406 28.9587 59.9664 28.7187 60.1312 28.4175C60.2988 28.1164 60.3826 27.7812 60.3826 27.4118C60.3826 27.051 60.3017 26.7229 60.1397 26.4275C59.9806 26.1292 59.7605 25.8919 59.4792 25.7158C59.2008 25.5397 58.8826 25.4516 58.5247 25.4516C58.2548 25.4516 58.0034 25.5056 57.7704 25.6135C57.5375 25.7187 57.3329 25.8635 57.1568 26.0482C56.9835 26.2329 56.8471 26.4445 56.7477 26.6831C56.6483 26.9189 56.5985 27.1675 56.5985 27.4289C56.5985 27.7755 56.6795 28.0993 56.8414 28.4005C57.0062 28.7016 57.2306 28.9445 57.5147 29.1292C57.8017 29.3138 58.127 29.4062 58.4906 29.4062Z" fill="#DA001F"/>
<path d="M42.7852 122.105L23 125.028L42.7852 122.105Z" fill="#DA001F"/>
<path d="M42.7852 122.105L23 125.028" stroke="black"/>
<path d="M4.51527 125.147C3.93004 125.147 3.413 125.044 2.96413 124.836C2.51811 124.626 2.1701 124.338 1.9201 123.971C1.6701 123.602 1.54652 123.181 1.54936 122.71C1.54652 122.34 1.61896 122 1.76669 121.687C1.91442 121.372 2.11612 121.109 2.3718 120.899C2.63033 120.686 2.91868 120.551 3.23686 120.494V120.443C2.81925 120.335 2.48686 120.1 2.2397 119.74C1.99254 119.376 1.87038 118.963 1.87322 118.5C1.87038 118.056 1.9826 117.66 2.20987 117.311C2.43714 116.961 2.74964 116.686 3.14737 116.484C3.54794 116.282 4.00391 116.181 4.51527 116.181C5.02095 116.181 5.47266 116.282 5.87038 116.484C6.26811 116.686 6.58061 116.961 6.80788 117.311C7.038 117.66 7.15447 118.056 7.15732 118.5C7.15447 118.963 7.02805 119.376 6.77805 119.74C6.53089 120.1 6.20277 120.335 5.79368 120.443V120.494C6.10902 120.551 6.39311 120.686 6.64595 120.899C6.89879 121.109 7.1005 121.372 7.25107 121.687C7.40163 122 7.47834 122.34 7.48118 122.71C7.47834 123.181 7.3505 123.602 7.09766 123.971C6.84766 124.338 6.49964 124.626 6.05362 124.836C5.61044 125.044 5.09766 125.147 4.51527 125.147ZM4.51527 124.21C4.91016 124.21 5.25107 124.146 5.538 124.018C5.82493 123.89 6.04652 123.71 6.20277 123.477C6.35902 123.244 6.43857 122.971 6.44141 122.659C6.43857 122.329 6.35334 122.038 6.18572 121.785C6.01811 121.532 5.78942 121.333 5.49965 121.188C5.21271 121.044 4.88459 120.971 4.51527 120.971C4.14311 120.971 3.81072 121.044 3.51811 121.188C3.22834 121.333 2.99964 121.532 2.83203 121.785C2.66726 122.038 2.58629 122.329 2.58913 122.659C2.58629 122.971 2.66158 123.244 2.81499 123.477C2.97124 123.71 3.19425 123.89 3.48402 124.018C3.77379 124.146 4.11754 124.21 4.51527 124.21ZM4.51527 120.068C4.82777 120.068 5.10476 120.005 5.34624 119.88C5.59055 119.755 5.78232 119.581 5.92152 119.356C6.06072 119.132 6.13175 118.869 6.13459 118.568C6.13175 118.272 6.06214 118.015 5.92578 117.796C5.78942 117.575 5.6005 117.404 5.35902 117.285C5.11754 117.163 4.83629 117.102 4.51527 117.102C4.18857 117.102 3.90305 117.163 3.65874 117.285C3.41442 117.404 3.2255 117.575 3.09197 117.796C2.95845 118.015 2.89311 118.272 2.89595 118.568C2.89311 118.869 2.95987 119.132 3.09624 119.356C3.23544 119.581 3.4272 119.755 3.67152 119.88C3.91584 120.005 4.19709 120.068 4.51527 120.068ZM11.9098 125.147C11.3246 125.147 10.8075 125.044 10.3587 124.836C9.91264 124.626 9.56463 124.338 9.31463 123.971C9.06463 123.602 8.94105 123.181 8.94389 122.71C8.94105 122.34 9.01349 122 9.16122 121.687C9.30895 121.372 9.51065 121.109 9.76634 120.899C10.0249 120.686 10.3132 120.551 10.6314 120.494V120.443C10.2138 120.335 9.88139 120.1 9.63423 119.74C9.38707 119.376 9.26491 118.963 9.26776 118.5C9.26491 118.056 9.37713 117.66 9.6044 117.311C9.83168 116.961 10.1442 116.686 10.5419 116.484C10.9425 116.282 11.3984 116.181 11.9098 116.181C12.4155 116.181 12.8672 116.282 13.2649 116.484C13.6626 116.686 13.9751 116.961 14.2024 117.311C14.4325 117.66 14.549 118.056 14.5518 118.5C14.549 118.963 14.4226 119.376 14.1726 119.74C13.9254 120.1 13.5973 120.335 13.1882 120.443V120.494C13.5036 120.551 13.7876 120.686 14.0405 120.899C14.2933 121.109 14.495 121.372 14.6456 121.687C14.7962 122 14.8729 122.34 14.8757 122.71C14.8729 123.181 14.745 123.602 14.4922 123.971C14.2422 124.338 13.8942 124.626 13.4482 124.836C13.005 125.044 12.4922 125.147 11.9098 125.147ZM11.9098 124.21C12.3047 124.21 12.6456 124.146 12.9325 124.018C13.2195 123.89 13.4411 123.71 13.5973 123.477C13.7536 123.244 13.8331 122.971 13.8359 122.659C13.8331 122.329 13.7479 122.038 13.5803 121.785C13.4126 121.532 13.1839 121.333 12.8942 121.188C12.6072 121.044 12.2791 120.971 11.9098 120.971C11.5376 120.971 11.2053 121.044 10.9126 121.188C10.6229 121.333 10.3942 121.532 10.2266 121.785C10.0618 122.038 9.98082 122.329 9.98366 122.659C9.98082 122.971 10.0561 123.244 10.2095 123.477C10.3658 123.71 10.5888 123.89 10.8786 124.018C11.1683 124.146 11.5121 124.21 11.9098 124.21ZM11.9098 120.068C12.2223 120.068 12.4993 120.005 12.7408 119.88C12.9851 119.755 13.1768 119.581 13.3161 119.356C13.4553 119.132 13.5263 118.869 13.5291 118.568C13.5263 118.272 13.4567 118.015 13.3203 117.796C13.1839 117.575 12.995 117.404 12.7536 117.285C12.5121 117.163 12.2308 117.102 11.9098 117.102C11.5831 117.102 11.2976 117.163 11.0533 117.285C10.8089 117.404 10.62 117.575 10.4865 117.796C10.353 118.015 10.2876 118.272 10.2905 118.568C10.2876 118.869 10.3544 119.132 10.4908 119.356C10.63 119.581 10.8217 119.755 11.0661 119.88C11.3104 120.005 11.5916 120.068 11.9098 120.068ZM19.3043 125.147C18.7191 125.147 18.2021 125.044 17.7532 124.836C17.3072 124.626 16.9592 124.338 16.7092 123.971C16.4592 123.602 16.3356 123.181 16.3384 122.71C16.3356 122.34 16.408 122 16.5558 121.687C16.7035 121.372 16.9052 121.109 17.1609 120.899C17.4194 120.686 17.7077 120.551 18.0259 120.494V120.443C17.6083 120.335 17.2759 120.1 17.0288 119.74C16.7816 119.376 16.6594 118.963 16.6623 118.5C16.6594 118.056 16.7717 117.66 16.9989 117.311C17.2262 116.961 17.5387 116.686 17.9364 116.484C18.337 116.282 18.793 116.181 19.3043 116.181C19.81 116.181 20.2617 116.282 20.6594 116.484C21.0572 116.686 21.3697 116.961 21.5969 117.311C21.8271 117.66 21.9435 118.056 21.9464 118.5C21.9435 118.963 21.8171 119.376 21.5671 119.74C21.32 120.1 20.9918 120.335 20.5827 120.443V120.494C20.8981 120.551 21.1822 120.686 21.435 120.899C21.6879 121.109 21.8896 121.372 22.0401 121.687C22.1907 122 22.2674 122.34 22.2702 122.71C22.2674 123.181 22.1396 123.602 21.8867 123.971C21.6367 124.338 21.2887 124.626 20.8427 124.836C20.3995 125.044 19.8867 125.147 19.3043 125.147ZM19.3043 124.21C19.6992 124.21 20.0401 124.146 20.3271 124.018C20.614 123.89 20.8356 123.71 20.9918 123.477C21.1481 123.244 21.2276 122.971 21.2305 122.659C21.2276 122.329 21.1424 122.038 20.9748 121.785C20.8072 121.532 20.5785 121.333 20.2887 121.188C20.0018 121.044 19.6737 120.971 19.3043 120.971C18.9322 120.971 18.5998 121.044 18.3072 121.188C18.0174 121.333 17.7887 121.532 17.6211 121.785C17.4563 122.038 17.3754 122.329 17.3782 122.659C17.3754 122.971 17.4506 123.244 17.604 123.477C17.7603 123.71 17.9833 123.89 18.2731 124.018C18.5629 124.146 18.9066 124.21 19.3043 124.21ZM19.3043 120.068C19.6168 120.068 19.8938 120.005 20.1353 119.88C20.3796 119.755 20.5714 119.581 20.7106 119.356C20.8498 119.132 20.9208 118.869 20.9237 118.568C20.9208 118.272 20.8512 118.015 20.7148 117.796C20.5785 117.575 20.3896 117.404 20.1481 117.285C19.9066 117.163 19.6254 117.102 19.3043 117.102C18.9776 117.102 18.6921 117.163 18.4478 117.285C18.2035 117.404 18.0146 117.575 17.881 117.796C17.7475 118.015 17.6822 118.272 17.685 118.568C17.6822 118.869 17.7489 119.132 17.8853 119.356C18.0245 119.581 18.2163 119.755 18.4606 119.88C18.7049 120.005 18.9862 120.068 19.3043 120.068Z" fill="#DA001F"/>
<path d="M155.369 183.087L163.73 201.255L155.369 183.087Z" fill="#DA001F"/>
<path d="M155.369 183.087L163.73 201.255" stroke="black"/>
<path d="M167.429 201.375C166.844 201.375 166.327 201.271 165.878 201.064C165.432 200.853 165.084 200.565 164.834 200.199C164.584 199.829 164.46 199.409 164.463 198.937C164.46 198.568 164.533 198.227 164.68 197.914C164.828 197.599 165.03 197.336 165.285 197.126C165.544 196.913 165.832 196.778 166.15 196.721V196.67C165.733 196.562 165.4 196.328 165.153 195.967C164.906 195.603 164.784 195.19 164.787 194.727C164.784 194.284 164.896 193.887 165.123 193.538C165.351 193.189 165.663 192.913 166.061 192.711C166.462 192.51 166.917 192.409 167.429 192.409C167.935 192.409 168.386 192.51 168.784 192.711C169.182 192.913 169.494 193.189 169.721 193.538C169.952 193.887 170.068 194.284 170.071 194.727C170.068 195.19 169.942 195.603 169.692 195.967C169.444 196.328 169.116 196.562 168.707 196.67V196.721C169.023 196.778 169.307 196.913 169.56 197.126C169.812 197.336 170.014 197.599 170.165 197.914C170.315 198.227 170.392 198.568 170.395 198.937C170.392 199.409 170.264 199.829 170.011 200.199C169.761 200.565 169.413 200.853 168.967 201.064C168.524 201.271 168.011 201.375 167.429 201.375ZM167.429 200.437C167.824 200.437 168.165 200.373 168.452 200.245C168.739 200.118 168.96 199.937 169.116 199.704C169.273 199.471 169.352 199.199 169.355 198.886C169.352 198.557 169.267 198.265 169.099 198.012C168.932 197.76 168.703 197.561 168.413 197.416C168.126 197.271 167.798 197.199 167.429 197.199C167.057 197.199 166.724 197.271 166.432 197.416C166.142 197.561 165.913 197.76 165.746 198.012C165.581 198.265 165.5 198.557 165.503 198.886C165.5 199.199 165.575 199.471 165.729 199.704C165.885 199.937 166.108 200.118 166.398 200.245C166.687 200.373 167.031 200.437 167.429 200.437ZM167.429 196.295C167.741 196.295 168.018 196.233 168.26 196.108C168.504 195.983 168.696 195.808 168.835 195.584C168.974 195.359 169.045 195.096 169.048 194.795C169.045 194.5 168.976 194.243 168.839 194.024C168.703 193.802 168.514 193.632 168.273 193.512C168.031 193.39 167.75 193.329 167.429 193.329C167.102 193.329 166.817 193.39 166.572 193.512C166.328 193.632 166.139 193.802 166.006 194.024C165.872 194.243 165.807 194.5 165.81 194.795C165.807 195.096 165.873 195.359 166.01 195.584C166.149 195.808 166.341 195.983 166.585 196.108C166.829 196.233 167.111 196.295 167.429 196.295ZM174.875 201.375C174.232 201.375 173.686 201.2 173.234 200.851C172.782 200.498 172.437 199.988 172.198 199.321C171.96 198.65 171.84 197.841 171.84 196.892C171.84 195.949 171.96 195.143 172.198 194.476C172.44 193.805 172.786 193.294 173.238 192.941C173.693 192.586 174.238 192.409 174.875 192.409C175.511 192.409 176.055 192.586 176.507 192.941C176.961 193.294 177.308 193.805 177.546 194.476C177.788 195.143 177.909 195.949 177.909 196.892C177.909 197.841 177.789 198.65 177.551 199.321C177.312 199.988 176.967 200.498 176.515 200.851C176.063 201.2 175.517 201.375 174.875 201.375ZM174.875 200.437C175.511 200.437 176.005 200.13 176.357 199.517C176.71 198.903 176.886 198.028 176.886 196.892C176.886 196.136 176.805 195.493 176.643 194.961C176.484 194.43 176.254 194.025 175.953 193.747C175.654 193.468 175.295 193.329 174.875 193.329C174.244 193.329 173.751 193.64 173.396 194.262C173.041 194.882 172.863 195.758 172.863 196.892C172.863 197.647 172.943 198.289 173.102 198.818C173.261 199.346 173.49 199.748 173.788 200.024C174.089 200.299 174.451 200.437 174.875 200.437ZM179.566 201.255L183.47 193.534V193.466H178.97V192.528H184.561V193.517L180.674 201.255H179.566Z" fill="#DA001F"/>
<path d="M201.271 120.63L221.107 123.185L201.271 120.63Z" fill="#DA001F"/>
<path d="M201.271 120.63L221.107 123.185" stroke="black"/>
<path d="M225.079 114.457V123.185H224.022V115.565H223.971L221.84 116.98V115.906L224.022 114.457H225.079ZM230.657 114.457V123.185H229.6V115.565H229.549L227.418 116.98V115.906L229.6 114.457H230.657ZM233.44 123.185L237.343 115.463V115.395H232.843V114.457H238.434V115.446L234.548 123.185H233.44Z" fill="#DA001F"/>
</svg>
