<svg width="87" height="87" viewBox="0 0 87 87" fill="none" xmlns="http://www.w3.org/2000/svg">
<g clip-path="url(#clip0_50_130)">
<path d="M15.2786 61.7315C18.4679 62.1909 21.5301 62.6191 24.5884 63.0584C25.1986 63.1432 25.6291 63.2038 26.3765 63.4362C26.9334 63.603 28.1067 63.9822 27.8012 64.5414C27.5007 64.977 27.2318 65.248 26.1564 65.2034C23.3798 65.0743 20.6449 64.5333 17.9286 64.0112C15.5302 63.5485 13.7085 63.159 11.6108 62.6244C10.6312 62.3746 10.4123 61.7726 10.8255 60.9371C11.1967 60.1873 11.5644 59.4112 12.0696 58.7453C13.8783 56.3343 15.7426 53.98 17.5922 51.5956C17.8201 51.298 17.98 51.0522 18.3018 50.7368C18.6955 50.3584 18.9609 50.0611 19.3965 50.3617C19.8135 50.6433 19.5594 51.308 19.3651 51.6172C17.7981 54.2368 14.4754 59.5867 14.3634 59.9117C16.156 59.4761 17.8241 59.1105 19.4744 58.651C30.9521 55.3961 42.1003 51.3507 52.15 44.7076C60.1052 39.4493 67.3004 33.3398 73.5471 26.1262C73.9187 25.7026 74.3313 25.3056 74.7362 24.9311C75.2775 24.4154 75.6503 24.243 75.9364 24.5045C76.4068 25.0678 76.1287 25.5111 75.9375 25.8841C75.5663 26.6338 75.0309 27.3145 74.5145 27.9766C67.5135 36.7608 58.8454 43.579 49.2437 49.2857C39.3893 55.1435 28.6335 58.5593 17.5495 61.0721C16.9598 61.1824 15.5274 61.5916 15.2786 61.7315Z" fill="black"/>
</g>
<defs>
<clipPath id="clip0_50_130">
<rect width="68.2792" height="68.2792" fill="white" transform="translate(64.5557 86.7964) rotate(-160.99)"/>
</clipPath>
</defs>
</svg>
