<svg width="27" height="25" viewBox="0 0 27 25" fill="none" xmlns="http://www.w3.org/2000/svg">
<path d="M14.4643 12.8787V19.5994C14.4643 19.854 14.3627 20.0982 14.1819 20.2783C14.001 20.4583 13.7557 20.5595 13.5 20.5595C13.2443 20.5595 12.999 20.4583 12.8182 20.2783C12.6373 20.0982 12.5357 19.854 12.5357 19.5994V12.8787C12.5357 12.624 12.6373 12.3798 12.8182 12.1998C12.999 12.0197 13.2443 11.9186 13.5 11.9186C13.7557 11.9186 14.001 12.0197 14.1819 12.1998C14.3627 12.3798 14.4643 12.624 14.4643 12.8787ZM18.9048 12.7827L18.2298 19.5034C18.2165 19.6292 18.2282 19.7564 18.2644 19.8777C18.3006 19.999 18.3606 20.1119 18.4408 20.2101C18.521 20.3082 18.6199 20.3896 18.7318 20.4496C18.8437 20.5096 18.9664 20.5469 19.0928 20.5595C19.1253 20.5614 19.1579 20.5614 19.1905 20.5595C19.4293 20.5592 19.6595 20.4707 19.8366 20.311C20.0136 20.1514 20.1248 19.932 20.1487 19.6954L20.8237 12.9747C20.8493 12.7213 20.7727 12.4682 20.6109 12.2711C20.449 12.0739 20.2151 11.9488 19.9607 11.9234C19.7062 11.8979 19.452 11.9741 19.254 12.1353C19.056 12.2964 18.9304 12.5293 18.9048 12.7827ZM8.09521 12.7827C8.06963 12.5293 7.94402 12.2964 7.746 12.1353C7.54798 11.9741 7.29378 11.8979 7.03932 11.9234C6.78485 11.9488 6.55097 12.0739 6.38912 12.2711C6.22727 12.4682 6.15071 12.7213 6.17629 12.9747L6.85128 19.6954C6.87527 19.933 6.98736 20.1533 7.16566 20.313C7.34397 20.4728 7.57568 20.5607 7.81556 20.5595C7.84808 20.5614 7.88068 20.5614 7.9132 20.5595C8.0392 20.5469 8.16147 20.5097 8.27303 20.45C8.38459 20.3904 8.48326 20.3094 8.5634 20.2118C8.64354 20.1142 8.70358 20.0018 8.7401 19.8811C8.77662 19.7603 8.78889 19.6336 8.77623 19.5082L8.09521 12.7827ZM26.9915 9.16546L25.175 22.7341C25.1117 23.1946 24.8833 23.6168 24.532 23.9229C24.1807 24.229 23.7302 24.3984 23.2633 24.3999H3.73665C3.26983 24.3984 2.81928 24.229 2.46799 23.9229C2.11669 23.6168 1.88833 23.1946 1.82497 22.7341L0.00850212 9.16546C-0.00970709 9.02984 0.00141042 8.8919 0.0411094 8.7609C0.0808084 8.62991 0.148172 8.50887 0.238685 8.4059C0.329198 8.30294 0.44077 8.22043 0.565923 8.16391C0.691076 8.10738 0.826918 8.07814 0.964346 8.07815H6.31249L12.7768 0.724957C12.8673 0.622795 12.9786 0.540975 13.1033 0.484931C13.228 0.428887 13.3632 0.399902 13.5 0.399902C13.6368 0.399902 13.772 0.428887 13.8967 0.484931C14.0214 0.540975 14.1327 0.622795 14.2232 0.724957L20.6875 8.07815H26.0357C26.1731 8.07814 26.3089 8.10738 26.4341 8.16391C26.5592 8.22043 26.6708 8.30294 26.7613 8.4059C26.8518 8.50887 26.9192 8.62991 26.9589 8.7609C26.9986 8.8919 27.0097 9.02984 26.9915 9.16546ZM8.87507 8.07815H18.1249L13.5 2.81558L8.87507 8.07815ZM24.934 9.99835H2.06604L3.73665 22.4797H23.2633L24.934 9.99835Z" fill="white"/>
</svg>
